<mxfile host="app.diagrams.net" agent="Mozilla/5.0 (Windows NT 10.0; Win64; x64) AppleWebKit/537.36 (KHTML, like Gecko) Chrome/136.0.0.0 Safari/537.36" version="27.0.3">
  <diagram name="P치gina-1" id="zFWKbWoPSDcNY0XITjec">
    <mxGraphModel grid="1" page="1" gridSize="10" guides="1" tooltips="1" connect="1" arrows="1" fold="1" pageScale="1" pageWidth="1654" pageHeight="2336" math="0" shadow="0">
      <root>
        <mxCell id="0" />
        <mxCell id="1" parent="0" />
        <mxCell id="EI4r4qzjrhwdP-Aq-uUQ-5" style="edgeStyle=orthogonalEdgeStyle;rounded=0;orthogonalLoop=1;jettySize=auto;html=1;entryX=0.5;entryY=0;entryDx=0;entryDy=0;endArrow=open;endFill=0;endSize=8;" edge="1" parent="1" source="EI4r4qzjrhwdP-Aq-uUQ-1" target="EI4r4qzjrhwdP-Aq-uUQ-3">
          <mxGeometry relative="1" as="geometry" />
        </mxCell>
        <mxCell id="EI4r4qzjrhwdP-Aq-uUQ-1" value="" style="ellipse;fillColor=strokeColor;html=1;" vertex="1" parent="1">
          <mxGeometry x="255" y="30" width="30" height="30" as="geometry" />
        </mxCell>
        <mxCell id="EI4r4qzjrhwdP-Aq-uUQ-13" style="edgeStyle=orthogonalEdgeStyle;shape=connector;rounded=0;orthogonalLoop=1;jettySize=auto;html=1;entryX=0.5;entryY=0;entryDx=0;entryDy=0;strokeColor=default;align=center;verticalAlign=middle;fontFamily=Helvetica;fontSize=11;fontColor=default;labelBackgroundColor=default;endArrow=open;endFill=0;endSize=8;" edge="1" parent="1" source="EI4r4qzjrhwdP-Aq-uUQ-3" target="EI4r4qzjrhwdP-Aq-uUQ-12">
          <mxGeometry relative="1" as="geometry" />
        </mxCell>
        <mxCell id="EI4r4qzjrhwdP-Aq-uUQ-3" value="Interfaz de acceso al sistema" style="rounded=1;whiteSpace=wrap;html=1;" vertex="1" parent="1">
          <mxGeometry x="210" y="130" width="120" height="60" as="geometry" />
        </mxCell>
        <mxCell id="EI4r4qzjrhwdP-Aq-uUQ-6" style="edgeStyle=orthogonalEdgeStyle;shape=connector;rounded=0;orthogonalLoop=1;jettySize=auto;html=1;exitX=0.25;exitY=0;exitDx=0;exitDy=0;entryX=0;entryY=0.25;entryDx=0;entryDy=0;strokeColor=default;align=center;verticalAlign=middle;fontFamily=Helvetica;fontSize=11;fontColor=default;labelBackgroundColor=default;endArrow=open;endFill=0;endSize=8;" edge="1" parent="1" source="EI4r4qzjrhwdP-Aq-uUQ-3" target="EI4r4qzjrhwdP-Aq-uUQ-3">
          <mxGeometry relative="1" as="geometry">
            <Array as="points">
              <mxPoint x="240" y="110" />
              <mxPoint x="185" y="110" />
              <mxPoint x="185" y="145" />
            </Array>
          </mxGeometry>
        </mxCell>
        <mxCell id="EI4r4qzjrhwdP-Aq-uUQ-7" value="Usuario o contrase침a en blanco" style="text;html=1;align=center;verticalAlign=middle;resizable=0;points=[];autosize=1;strokeColor=none;fillColor=none;fontFamily=Helvetica;fontSize=11;fontColor=default;labelBackgroundColor=default;" vertex="1" parent="1">
          <mxGeometry x="30" y="80" width="180" height="30" as="geometry" />
        </mxCell>
        <mxCell id="EI4r4qzjrhwdP-Aq-uUQ-9" value="" style="endArrow=none;html=1;rounded=0;strokeColor=default;align=center;verticalAlign=middle;fontFamily=Helvetica;fontSize=11;fontColor=default;labelBackgroundColor=default;edgeStyle=orthogonalEdgeStyle;endSize=8;" edge="1" parent="1">
          <mxGeometry width="50" height="50" relative="1" as="geometry">
            <mxPoint x="180" y="109.65999999999997" as="sourcePoint" />
            <mxPoint x="60" y="109.65999999999997" as="targetPoint" />
          </mxGeometry>
        </mxCell>
        <mxCell id="EI4r4qzjrhwdP-Aq-uUQ-11" value="&lt;div&gt;Mensaje de error&amp;nbsp;&lt;/div&gt;&lt;div&gt;intentar nuevamente&lt;/div&gt;" style="text;html=1;align=center;verticalAlign=middle;resizable=0;points=[];autosize=1;strokeColor=none;fillColor=none;fontFamily=Helvetica;fontSize=11;fontColor=default;labelBackgroundColor=default;" vertex="1" parent="1">
          <mxGeometry x="60" y="110" width="120" height="40" as="geometry" />
        </mxCell>
        <mxCell id="EI4r4qzjrhwdP-Aq-uUQ-14" style="edgeStyle=orthogonalEdgeStyle;shape=connector;rounded=0;orthogonalLoop=1;jettySize=auto;html=1;entryX=0;entryY=0.5;entryDx=0;entryDy=0;strokeColor=default;align=center;verticalAlign=middle;fontFamily=Helvetica;fontSize=11;fontColor=default;labelBackgroundColor=default;endArrow=open;endFill=0;endSize=8;" edge="1" parent="1" source="EI4r4qzjrhwdP-Aq-uUQ-12" target="EI4r4qzjrhwdP-Aq-uUQ-3">
          <mxGeometry relative="1" as="geometry">
            <Array as="points">
              <mxPoint x="175" y="280" />
              <mxPoint x="175" y="160" />
            </Array>
          </mxGeometry>
        </mxCell>
        <mxCell id="EI4r4qzjrhwdP-Aq-uUQ-15" style="edgeStyle=orthogonalEdgeStyle;shape=connector;rounded=0;orthogonalLoop=1;jettySize=auto;html=1;entryX=1;entryY=0.5;entryDx=0;entryDy=0;strokeColor=default;align=center;verticalAlign=middle;fontFamily=Helvetica;fontSize=11;fontColor=default;labelBackgroundColor=default;endArrow=open;endFill=0;endSize=8;" edge="1" parent="1" source="EI4r4qzjrhwdP-Aq-uUQ-12" target="EI4r4qzjrhwdP-Aq-uUQ-3">
          <mxGeometry relative="1" as="geometry">
            <Array as="points">
              <mxPoint x="365" y="280" />
              <mxPoint x="365" y="160" />
            </Array>
          </mxGeometry>
        </mxCell>
        <mxCell id="EI4r4qzjrhwdP-Aq-uUQ-32" style="edgeStyle=orthogonalEdgeStyle;shape=connector;rounded=0;orthogonalLoop=1;jettySize=auto;html=1;entryX=0.5;entryY=0;entryDx=0;entryDy=0;strokeColor=default;align=center;verticalAlign=middle;fontFamily=Helvetica;fontSize=11;fontColor=default;labelBackgroundColor=default;endArrow=open;endFill=0;endSize=8;" edge="1" parent="1" source="EI4r4qzjrhwdP-Aq-uUQ-12" target="EI4r4qzjrhwdP-Aq-uUQ-31">
          <mxGeometry relative="1" as="geometry" />
        </mxCell>
        <mxCell id="EI4r4qzjrhwdP-Aq-uUQ-12" value="Comprobar usuario y contrase침a Por medio de un token (JWT)" style="rounded=1;whiteSpace=wrap;html=1;fontFamily=Helvetica;fontSize=11;fontColor=default;labelBackgroundColor=default;" vertex="1" parent="1">
          <mxGeometry x="210" y="250" width="120" height="60" as="geometry" />
        </mxCell>
        <mxCell id="EI4r4qzjrhwdP-Aq-uUQ-25" value="Contrase침a invalida" style="text;html=1;align=center;verticalAlign=middle;resizable=0;points=[];autosize=1;strokeColor=none;fillColor=none;fontFamily=Helvetica;fontSize=11;fontColor=default;labelBackgroundColor=default;" vertex="1" parent="1">
          <mxGeometry x="45" y="180" width="120" height="30" as="geometry" />
        </mxCell>
        <mxCell id="EI4r4qzjrhwdP-Aq-uUQ-26" value="" style="endArrow=none;html=1;rounded=0;strokeColor=default;align=center;verticalAlign=middle;fontFamily=Helvetica;fontSize=11;fontColor=default;labelBackgroundColor=default;edgeStyle=orthogonalEdgeStyle;endSize=8;" edge="1" parent="1">
          <mxGeometry width="50" height="50" relative="1" as="geometry">
            <mxPoint x="165" y="209.65999999999997" as="sourcePoint" />
            <mxPoint x="45" y="209.65999999999997" as="targetPoint" />
          </mxGeometry>
        </mxCell>
        <mxCell id="EI4r4qzjrhwdP-Aq-uUQ-27" value="&lt;div&gt;Mensaje de error&amp;nbsp;&lt;/div&gt;&lt;div&gt;intentar nuevamente&lt;/div&gt;" style="text;html=1;align=center;verticalAlign=middle;resizable=0;points=[];autosize=1;strokeColor=none;fillColor=none;fontFamily=Helvetica;fontSize=11;fontColor=default;labelBackgroundColor=default;" vertex="1" parent="1">
          <mxGeometry x="45" y="210" width="120" height="40" as="geometry" />
        </mxCell>
        <mxCell id="EI4r4qzjrhwdP-Aq-uUQ-28" value="Usuario invalido" style="text;html=1;align=center;verticalAlign=middle;resizable=0;points=[];autosize=1;strokeColor=none;fillColor=none;fontFamily=Helvetica;fontSize=11;fontColor=default;labelBackgroundColor=default;" vertex="1" parent="1">
          <mxGeometry x="385" y="180" width="100" height="30" as="geometry" />
        </mxCell>
        <mxCell id="EI4r4qzjrhwdP-Aq-uUQ-29" value="" style="endArrow=none;html=1;rounded=0;strokeColor=default;align=center;verticalAlign=middle;fontFamily=Helvetica;fontSize=11;fontColor=default;labelBackgroundColor=default;edgeStyle=orthogonalEdgeStyle;endSize=8;" edge="1" parent="1">
          <mxGeometry width="50" height="50" relative="1" as="geometry">
            <mxPoint x="495" y="209.65999999999997" as="sourcePoint" />
            <mxPoint x="375" y="209.65999999999997" as="targetPoint" />
          </mxGeometry>
        </mxCell>
        <mxCell id="EI4r4qzjrhwdP-Aq-uUQ-30" value="&lt;div&gt;Mensaje de error&amp;nbsp;&lt;/div&gt;&lt;div&gt;intentar nuevamente&lt;/div&gt;" style="text;html=1;align=center;verticalAlign=middle;resizable=0;points=[];autosize=1;strokeColor=none;fillColor=none;fontFamily=Helvetica;fontSize=11;fontColor=default;labelBackgroundColor=default;" vertex="1" parent="1">
          <mxGeometry x="375" y="210" width="120" height="40" as="geometry" />
        </mxCell>
        <mxCell id="EI4r4qzjrhwdP-Aq-uUQ-31" value="" style="ellipse;html=1;shape=endState;fillColor=strokeColor;fontFamily=Helvetica;fontSize=11;fontColor=default;labelBackgroundColor=default;" vertex="1" parent="1">
          <mxGeometry x="255" y="390" width="30" height="30" as="geometry" />
        </mxCell>
        <mxCell id="EI4r4qzjrhwdP-Aq-uUQ-33" value="Acceso a la interfaz&amp;nbsp;" style="text;html=1;align=center;verticalAlign=middle;resizable=0;points=[];autosize=1;strokeColor=none;fillColor=none;fontFamily=Helvetica;fontSize=11;fontColor=default;labelBackgroundColor=default;" vertex="1" parent="1">
          <mxGeometry x="145" y="350" width="120" height="30" as="geometry" />
        </mxCell>
        <mxCell id="W0_1jqlGO-n4XNdDizI6-1" style="edgeStyle=orthogonalEdgeStyle;shape=connector;rounded=0;orthogonalLoop=1;jettySize=auto;html=1;exitX=0.25;exitY=0;exitDx=0;exitDy=0;entryX=1;entryY=0.25;entryDx=0;entryDy=0;strokeColor=default;align=center;verticalAlign=middle;fontFamily=Helvetica;fontSize=11;fontColor=default;labelBackgroundColor=default;endArrow=open;endFill=0;endSize=8;" edge="1" parent="1" target="EI4r4qzjrhwdP-Aq-uUQ-3">
          <mxGeometry relative="1" as="geometry">
            <Array as="points">
              <mxPoint x="320" y="110" />
              <mxPoint x="370" y="110" />
              <mxPoint x="370" y="145" />
            </Array>
            <mxPoint x="320" y="130" as="sourcePoint" />
            <mxPoint x="290" y="145" as="targetPoint" />
          </mxGeometry>
        </mxCell>
        <mxCell id="W0_1jqlGO-n4XNdDizI6-2" value="Error en el servidor" style="text;html=1;align=center;verticalAlign=middle;resizable=0;points=[];autosize=1;strokeColor=none;fillColor=none;fontFamily=Helvetica;fontSize=11;fontColor=default;labelBackgroundColor=default;" vertex="1" parent="1">
          <mxGeometry x="330" y="80" width="120" height="30" as="geometry" />
        </mxCell>
      </root>
    </mxGraphModel>
  </diagram>
</mxfile>
